<svg width="20" height="21" viewBox="0 0 20 21" fill="none" xmlns="http://www.w3.org/2000/svg">
<path fill-rule="evenodd" clip-rule="evenodd" d="M0 1C0 0.447715 0.447715 0 1 0H19C19.5523 0 20 0.447715 20 1V4C20 4.29192 19.8724 4.56927 19.6508 4.75926L13 10.4599V18C13 18.3788 12.786 18.725 12.4472 18.8944L8.44721 20.8944C8.13971 21.0482 7.77479 21.0332 7.48093 20.8547C7.18707 20.6763 7.00549 20.3594 7.00012 20.0156L6.85081 10.4594L0.340766 4.75194C0.12419 4.56206 0 4.28802 0 4V1ZM2 2V3.54682L8.50298 9.24806C8.71546 9.43435 8.83921 9.70183 8.84363 9.98438L8.97503 18.3944L11 17.382V10C11 9.70808 11.1276 9.43073 11.3492 9.24074L18 3.54007V2H2Z" fill="#0D6EFD"/>
</svg>
