<svg width="210" height="83" viewBox="0 0 210 83" fill="none" xmlns="http://www.w3.org/2000/svg">
<path fill-rule="evenodd" clip-rule="evenodd" d="M111.512 6.57332C110.488 6.1623 109.345 6.14248 108.307 6.51773L4.26529 44.1267C2.62071 44.7212 0.798368 43.8896 0.194967 42.2694C-0.408434 40.6491 0.435606 38.8537 2.08018 38.2592L106.122 0.650203C108.643 -0.261108 111.418 -0.21297 113.905 0.785206L207.369 38.2989C208.992 38.95 209.771 40.7736 209.11 42.372C208.449 43.9703 206.598 44.7381 204.976 44.087L111.512 6.57332Z" fill="#0C0C0C"/>
<path d="M118.634 71.4527L118.385 49.6359L124.527 49.5752L124.776 71.392L118.634 71.4527ZM121.438 46.7931C120.525 46.8021 119.739 46.5116 119.078 45.9215C118.427 45.3218 118.097 44.6006 118.088 43.7579C118.078 42.9246 118.392 42.2065 119.029 41.6036C119.676 40.9911 120.456 40.6804 121.369 40.6713C122.282 40.6623 123.064 40.9576 123.715 41.5573C124.375 42.1474 124.71 42.8591 124.719 43.6923C124.729 44.5351 124.41 45.2627 123.764 45.8752C123.127 46.4781 122.351 46.7841 121.438 46.7931Z" fill="#0C0C0C"/>
<path d="M114.383 49.6752L114.435 54.2204L101.1 54.3522L101.048 49.807L114.383 49.6752ZM104.016 44.5502L110.157 44.4894L110.389 64.8291C110.396 65.3878 110.487 65.8225 110.664 66.1332C110.84 66.4345 111.083 66.6452 111.392 66.7653C111.71 66.8853 112.076 66.9432 112.49 66.9391C112.778 66.9363 113.066 66.9097 113.354 66.8595C113.641 66.7999 113.862 66.7551 114.015 66.7251L115.033 71.2182C114.726 71.3159 114.295 71.4291 113.739 71.5577C113.183 71.6957 112.506 71.7829 111.709 71.8192C110.229 71.8907 108.93 71.7094 107.81 71.2753C106.699 70.8412 105.831 70.1585 105.205 69.2271C104.58 68.2958 104.263 67.1151 104.257 65.6852L104.016 44.5502Z" fill="#0C0C0C"/>
<path d="M83.5974 59.1851L83.7412 71.798L77.5996 71.8587L77.3509 50.0419L83.2042 49.984L83.248 53.8332L83.5075 53.8307C83.9832 52.5569 84.7936 51.5451 85.9385 50.7951C87.0833 50.0357 88.4775 49.6478 90.121 49.6316C91.6588 49.6164 93.0034 49.9345 94.1547 50.5861C95.306 51.2376 96.2058 52.1757 96.8542 53.4004C97.5024 54.6157 97.8362 56.0708 97.8555 57.7657L98.0139 71.6569L91.8723 71.7176L91.7263 58.9059C91.7206 57.5707 91.3628 56.5325 90.6526 55.7914C89.9424 55.0408 88.9721 54.6716 87.7419 54.6837C86.9153 54.6919 86.1868 54.8743 85.5565 55.2309C84.9358 55.5875 84.4514 56.1036 84.1035 56.7795C83.765 57.4457 83.5963 58.2476 83.5974 59.1851Z" fill="#0C0C0C"/>
<path d="M63.4319 72.4243C61.154 72.4468 59.1881 72.0116 57.5343 71.1189C55.8899 70.2165 54.616 68.9317 53.7127 67.2644C52.8092 65.5876 52.3444 63.5988 52.3182 61.2978C52.2926 59.0536 52.7122 57.0796 53.5772 55.3759C54.4421 53.6722 55.6717 52.339 57.266 51.3762C58.8699 50.4133 60.7579 49.9212 62.93 49.8997C64.3909 49.8853 65.7536 50.1038 67.018 50.5553C68.2918 50.9973 69.4049 51.6729 70.3573 52.5821C71.3193 53.4912 72.0725 54.6391 72.617 56.0258C73.1614 57.4031 73.4442 59.0197 73.4653 60.8757L73.4842 62.5375L54.7855 62.7223L54.7428 58.9725L67.6603 58.8449C67.6504 57.9737 67.4494 57.2039 67.0573 56.5354C66.6652 55.8669 66.1257 55.3466 65.439 54.9746C64.7618 54.593 63.9763 54.4066 63.0824 54.4155C62.1501 54.4247 61.326 54.6459 60.61 55.0791C59.9035 55.5028 59.3525 56.0717 58.9569 56.7859C58.5612 57.4906 58.3635 58.2738 58.3637 59.1356L58.4043 62.7007C58.4166 63.7802 58.6291 64.7109 59.0417 65.4929C59.464 66.2747 60.0524 66.875 60.8069 67.2937C61.5614 67.7124 62.4529 67.9167 63.4813 67.9065C64.1637 67.8998 64.7874 67.7989 65.3523 67.6039C65.9172 67.4089 66.3993 67.12 66.7987 66.7373C67.198 66.3545 67.5003 65.8875 67.7055 65.3362L73.39 65.6494C73.1169 66.9968 72.5392 68.1768 71.6568 69.1894C70.7839 70.1924 69.649 70.9802 68.2522 71.5527C66.8648 72.1157 65.258 72.4062 63.4319 72.4243Z" fill="#0C0C0C"/>
<path d="M27.1655 72.3567L26.834 43.2676L38.4828 43.1524C40.7126 43.1304 42.6202 43.5046 44.2054 44.2749C45.8001 45.0357 47.0189 46.1269 47.8617 47.5486C48.7141 48.9607 49.1512 50.6279 49.1731 52.5501C49.1952 54.4818 48.7912 56.1478 47.9613 57.5481C47.1312 58.939 45.9179 60.0116 44.3212 60.7661C42.7342 61.5204 40.8065 61.9088 38.5383 61.9312L30.7387 62.0083L30.6824 57.0655L37.4727 56.9983C38.6645 56.9866 39.6527 56.8158 40.4371 56.4861C41.2216 56.1563 41.8024 55.6676 42.1795 55.0199C42.5662 54.3721 42.7541 53.57 42.7432 52.6136C42.7322 51.6478 42.5259 50.8354 42.1243 50.1765C41.7323 49.5174 41.1354 49.0214 40.3338 48.6884C39.5417 48.3458 38.5449 48.1805 37.3435 48.1924L33.1338 48.234L33.4081 72.295L27.1655 72.3567ZM42.9597 58.9613L50.4488 72.1265L43.5575 72.1946L36.227 59.0278L42.9597 58.9613Z" fill="#0D6EFD"/>
<path fill-rule="evenodd" clip-rule="evenodd" d="M142.936 66.0024V55.1232H155.619V49.631H142.936V43.5285H156.954V38.0362H142.936V32.5439H136.261V66.1172C132.835 67.384 130.418 70.4543 130.418 74.0407C130.418 78.7592 134.602 82.5842 139.763 82.5842C144.924 82.5842 149.108 78.7592 149.108 74.0407C149.108 70.3408 146.536 67.1902 142.936 66.0024ZM139.763 77.6689C137.571 77.6689 135.795 76.0445 135.795 74.0407C135.795 72.037 137.571 70.4126 139.763 70.4126C141.955 70.4126 143.732 72.037 143.732 74.0407C143.732 76.0445 141.955 77.6689 139.763 77.6689Z" fill="#0D6EFD"/>
<path d="M165.896 79.4756C165.118 79.4756 164.387 79.414 163.705 79.2909C163.032 79.1773 162.475 79.0305 162.033 78.8506L163.417 74.3335C164.138 74.5513 164.786 74.6697 165.363 74.6887C165.949 74.7076 166.454 74.575 166.877 74.2909C167.309 74.0068 167.66 73.5239 167.929 72.8421L168.29 71.9188L160.346 49.4756H166.805L171.39 65.4983H171.62L176.248 49.4756H182.751L174.143 73.6517C173.73 74.826 173.168 75.8487 172.456 76.7199C171.755 77.6006 170.866 78.2777 169.789 78.7512C168.713 79.2341 167.415 79.4756 165.896 79.4756Z" fill="#0C0C0C"/>
<path d="M170.707 8.14355H158.377C158.026 8.14355 157.742 8.42338 157.742 8.76856V16.6841C157.742 16.9367 157.897 17.1645 158.133 17.2613L170.464 22.3027C170.882 22.4735 171.342 22.171 171.342 21.7254V8.76855C171.342 8.42338 171.058 8.14355 170.707 8.14355Z" fill="#0C0C0C"/>
</svg>
