<svg width="13" height="7" viewBox="0 0 13 7" fill="none" xmlns="http://www.w3.org/2000/svg">
<path d="M10.4863 3.64955H11.4817C11.9879 3.64955 12.2411 3.47998 12.2411 3.14083C12.2411 3.00811 12.2165 2.80905 12.1673 2.54363C12.1231 2.27329 12.0715 2.01033 12.0125 1.75473L12.5728 1.60728C12.6318 1.85795 12.6859 2.13321 12.735 2.43303C12.7891 2.73286 12.8161 2.96634 12.8161 3.13345C12.8161 3.33989 12.767 3.53404 12.6687 3.71591C12.5704 3.89285 12.4205 4.03785 12.2189 4.1509C12.0174 4.25904 11.7717 4.31311 11.4817 4.31311H10.4863V3.64955ZM10.8181 0H11.5554V0.737283H10.8181V0ZM12.1378 0H12.8751V0.737283H12.1378V0Z" fill="#73767C"/>
<path d="M8.26951 5.51511C8.61357 5.51511 8.87899 5.47333 9.06577 5.38977C9.25746 5.31113 9.39018 5.18825 9.4639 5.02113C9.53763 4.85401 9.5745 4.63283 9.5745 4.35758V4.31334H8.76348C8.35061 4.31334 8.01637 4.19046 7.76078 3.9447C7.5101 3.69894 7.38477 3.35487 7.38477 2.9125C7.38477 2.61267 7.44129 2.33988 7.55434 2.09412C7.67231 1.84836 7.83451 1.6542 8.04095 1.51166C8.2523 1.36912 8.49069 1.29785 8.75611 1.29785C9.03628 1.29785 9.28204 1.36666 9.4934 1.50429C9.70475 1.64192 9.86695 1.83361 9.98 2.07937C10.0931 2.32022 10.1496 2.59793 10.1496 2.9125V3.64978H10.5625L10.6067 3.98893L10.5625 4.31334H10.1496V4.35758C10.1496 4.91791 9.99966 5.36028 9.69983 5.68469C9.40492 6.01401 8.92814 6.17866 8.26951 6.17866H7.48061V5.51511H8.26951ZM7.95985 2.9125C7.95985 3.18284 8.02374 3.37453 8.15154 3.48758C8.27934 3.59572 8.48332 3.64978 8.76348 3.64978H9.5745V2.9125C9.5745 2.61267 9.50568 2.3792 9.36806 2.21208C9.23043 2.04005 9.02645 1.95403 8.75611 1.95403C8.50544 1.95403 8.30883 2.04251 8.16629 2.21946C8.02866 2.39149 7.95985 2.6225 7.95985 2.9125Z" fill="#73767C"/>
<path d="M3.50586 5.48059H3.7123C3.94331 5.48059 4.08586 5.37737 4.13992 5.17094L4.37585 4.32306C4.48399 3.93967 4.65111 3.63984 4.87721 3.42357C5.10331 3.20239 5.3761 3.0918 5.69559 3.0918C5.95118 3.0918 6.17728 3.16798 6.37389 3.32035C6.5705 3.46781 6.72287 3.66934 6.83101 3.92493C6.93914 4.1756 6.99321 4.4484 6.99321 4.74331C6.99321 5.10704 6.9416 5.40687 6.83838 5.6428C6.73516 5.87381 6.59999 6.04093 6.43287 6.14415C6.27067 6.25228 6.09864 6.30635 5.91677 6.30635C5.73 6.30635 5.54322 6.26949 5.35644 6.19576C5.16966 6.12695 4.87475 5.98932 4.4717 5.78288C4.3734 5.89593 4.25789 5.9844 4.12518 6.0483C3.99247 6.1122 3.85484 6.14415 3.7123 6.14415H3.50586V5.48059ZM4.74449 5.19305C5.09839 5.37492 5.34907 5.49534 5.49652 5.55432C5.64398 5.6133 5.78406 5.6428 5.91677 5.6428C6.08389 5.6428 6.20923 5.58136 6.29279 5.45848C6.37635 5.33068 6.41813 5.09229 6.41813 4.74331C6.41813 4.43365 6.35669 4.19281 6.23381 4.02077C6.11093 3.84383 5.93152 3.75535 5.69559 3.75535C5.51864 3.75535 5.36381 3.81679 5.2311 3.93967C5.10331 4.06255 5.005 4.24933 4.93619 4.50001L4.74449 5.19305Z" fill="#73767C"/>
<path d="M3.46754 6.14474C2.98093 6.14474 2.64424 6.01449 2.45746 5.75398C2.27068 5.48856 2.17729 5.10026 2.17729 4.58907L2.16992 3.81738H2.745L2.75238 4.58907C2.75238 4.85449 2.76712 5.04619 2.79661 5.16415C2.83102 5.28212 2.89492 5.36568 2.98831 5.41483C3.08661 5.45907 3.24636 5.48119 3.46754 5.48119H3.57813L3.615 5.82034L3.57813 6.14474H3.46754Z" fill="#73767C"/>
<path d="M0.987959 0.600036C0.712707 1.16037 0.575081 1.68138 0.575081 2.16308C0.575081 2.61036 0.683216 2.96917 0.899485 3.23951C1.12067 3.51476 1.45491 3.65239 1.90219 3.65239H2.69108C3.02532 3.65239 3.28582 3.61307 3.4726 3.53442C3.65938 3.46069 3.79209 3.34027 3.87074 3.17315C3.94938 3.01095 3.9887 2.78731 3.9887 2.50223V0.187158H4.56378V2.50223C4.56378 3.07239 4.41387 3.51722 4.11404 3.83671C3.81421 4.1562 3.33989 4.31594 2.69108 4.31594H1.90219C1.49423 4.31594 1.1477 4.21518 0.862621 4.01366C0.577538 3.81213 0.361269 3.54671 0.213812 3.21739C0.0712707 2.88807 0 2.53663 0 2.16308C0 1.56342 0.167118 0.953932 0.501352 0.334614L0.987959 0.600036ZM2.09388 0.165039H2.83117V0.902322H2.09388V0.165039Z" fill="#73767C"/>
</svg>
